<?xml version="1.0" encoding="UTF-8"?>
<svg id="Layer_1" xmlns="http://www.w3.org/2000/svg" version="1.1" viewBox="0 0 512 512">
  <!-- Generator: Adobe Illustrator 29.1.0, SVG Export Plug-In . SVG Version: 2.1.0 Build 142)  -->
  <g id="oYGzUq.tif">
    <path d="M8.1,67.9C13,24.7,59.1-2,99,16.4c52.9,24.4,46.7,102.8-9,118.2v104.4h148.8v-104.4c-37.5-9.5-56.5-51.1-40.8-86.4,19-42.6,76.2-50.8,106.6-15.2,29.9,34.9,13.3,90.5-31.3,101.7v104.4h143.9c1.3,0,5.7-3.7,4.9-5.9v-97.8c-38.7-11.8-57.8-56.8-37.6-92.5,24.5-43.1,85.5-42.2,110.2-1.6,1.9,3.1,3.3,6.5,4.3,10l3.4,12.1c1,3.7,1.6,7.6,1.6,11.4h0c0,3.2-.4,6.3-1.1,9.4-1,4.6-2,9.3-3.8,13.8-6.8,17-23.5,32.5-41.4,36.7v101.6c.6,14.8-18.3,37.1-33,37.1h-151.5v104.4c65.4,18.2,59.3,110.6-6.5,123.7h-21.6c-65.9-13.2-71.9-105.4-6.5-123.7v-104.4H90v104.4c64.6,19.2,58.4,111.1-7.5,123.7h-21.6c-19.6-4.9-38-17-46.6-35.8s-4.4-14.8-6.3-22.3v-10.8c1.6-6.2,2.5-12.3,4.9-18.3,7.1-17.8,23.4-31.7,41.6-37.2v-241.9c-18.2-5.5-34.4-19.5-41.6-37.2s-3.3-12.1-4.9-18.3c.3-3.8-.4-8.1,0-11.8Z"/>
  </g>
</svg>