<?xml version="1.0" encoding="UTF-8"?>
<svg id="Layer_1" xmlns="http://www.w3.org/2000/svg" xmlns:xlink="http://www.w3.org/1999/xlink" version="1.1" viewBox="0 0 791 210">
  <!-- Generator: Adobe Illustrator 29.1.0, SVG Export Plug-In . SVG Version: 2.1.0 Build 142)  -->
  <defs>
    <style>
      .st0 {
        fill: #f15a24;
      }

      .st1 {
        fill: url(#linear-gradient2);
      }

      .st2 {
        fill: url(#linear-gradient1);
      }

      .st3 {
        fill: url(#linear-gradient);
      }
    </style>
    <linearGradient id="linear-gradient" x1="76.98" y1="77.12" x2="76.98" y2="195.93" gradientUnits="userSpaceOnUse">
      <stop offset=".17" stop-color="#f15a24"/>
      <stop offset=".22" stop-color="#f15e29" stop-opacity=".97"/>
      <stop offset=".29" stop-color="#f16a3a" stop-opacity=".9"/>
      <stop offset=".38" stop-color="#f37e55" stop-opacity=".77"/>
      <stop offset=".47" stop-color="#f49a7a" stop-opacity=".6"/>
      <stop offset=".57" stop-color="#f6beaa" stop-opacity=".37"/>
      <stop offset=".68" stop-color="#f9e9e4" stop-opacity=".1"/>
      <stop offset=".72" stop-color="#fafafa" stop-opacity="0"/>
    </linearGradient>
    <linearGradient id="linear-gradient1" x1="160.11" y1="75.99" x2="160.11" xlink:href="#linear-gradient"/>
    <linearGradient id="linear-gradient2" x1="255.21" y1="75.99" x2="255.21" xlink:href="#linear-gradient"/>
  </defs>
  <g>
    <path class="st0" d="M323.8,36.03c24.07,5.56,87.25,27.01,190.23,4.27,50.9-11.24,82.32-21.32,143.04-23.88,33.11-2.77,77.84,8.66,108.97,22.78,2.94,1.33,5.77,2.94,8.46,5.16-32.02-8.45-64.24-13.38-97.03-13.46-47.89-.11-94.32,10.84-140.83,21.28-54.35,12.2-108.94,19.52-163.76,3.22-21.31-6.33-46.02-17.59-49.09-19.37Z"/>
    <path d="M493.6,33.5c-47.1-13.38-94.49-15.7-141.75-8.12-35.85,5.75-71.29,14.61-106.79,22.7-59.75,13.62-119.31,17.19-178.46-5.99-15.75-6.17-31.12-13.62-46.1-22.13,18.08,4.56,36.06,9.87,54.27,13.54,54.33,10.95,108.4,6.69,162.31-2.31,51.36-8.57,102.22-20.98,154.59-21.57,35.3-.4,79.43,9.27,101.93,23.88Z"/>
    <g>
      <polygon class="st0" points="323.63 199.78 310.93 199.78 316.99 166.24 329.7 166.24 323.63 199.78"/>
      <polygon class="st0" points="345.61 199.78 328.57 199.78 334.64 166.24 351.68 166.24 345.61 199.78"/>
      <polygon class="st0" points="374.66 199.78 350.68 199.78 356.75 166.24 380.73 166.24 374.66 199.78"/>
    </g>
    <g>
      <path d="M359.87,133.79c-3.03,1.6-6.52,2.37-10.47,2.32-2.23,0-4.23-.41-6.01-1.24-1.77-.83-3.25-1.94-4.42-3.35-1.17-1.4-1.97-3.06-2.4-4.98-.43-1.92-.47-3.99-.13-6.22.46-2.4,1.27-4.56,2.45-6.48,1.17-1.92,2.63-3.57,4.38-4.98,1.74-1.4,3.67-2.49,5.79-3.26s4.35-1.16,6.69-1.16c3.6,0,6.65.73,9.14,2.19,2.49,1.46,4.62,3.3,6.39,5.53l2.66-17.5c-2.4-1.83-4.98-3.27-7.72-4.33-2.75-1.06-6.01-1.59-9.78-1.59-4.92,0-9.51.79-13.77,2.36-4.26,1.57-8.08,3.76-11.46,6.56-3.38,2.8-6.16,6.13-8.37,10-2.2,3.86-3.65,8.08-4.33,12.66-.63,4.46-.42,8.61.64,12.44,1.06,3.83,2.83,7.18,5.32,10.04,2.49,2.86,5.62,5.09,9.4,6.69,3.78,1.6,8.01,2.4,12.7,2.4,3.95,0,7.41-.56,10.38-1.67,2.97-1.12,5.8-2.53,8.49-4.25l2.57-17.42c-2.4,1.89-5.12,3.63-8.15,5.23Z"/>
      <path d="M365.53,150.35h18.96l6.4-9.7h17.26l3.02,9.7h18.19l-20.85-64.35-42.99,64.35ZM407.18,128.39h-11.35l7.89-13.47,3.46,13.47Z"/>
      <path d="M472.74,128.04c3.8-1.6,6.89-3.92,9.27-6.95,2.37-3.03,3.82-6.61,4.33-10.73.51-4.06,0-7.59-1.54-10.6-1.54-3-3.95-5.33-7.21-6.99-3.26-1.66-7.24-2.49-11.93-2.49h-22.57l-10.3,60.06h16.39l3.41-19.91h3.46l8.05,19.91h18.53l-10.68-22.01c.26-.1.52-.19.77-.3ZM462.66,104.36c1.54,0,2.85.27,3.9.82,1.06.54,1.83,1.3,2.32,2.27.49.97.59,2.14.3,3.52-.23,1.43-.8,2.66-1.72,3.69-.92,1.03-2.05,1.82-3.39,2.36-1.34.54-2.82.81-4.42.81h-4.89l2.31-13.47h5.59Z"/>
      <path d="M512.38,104.32c.6-.6,1.37-1.04,2.32-1.33.94-.29,1.93-.43,2.96-.43,1.43,0,2.69.26,3.78.77,1.09.51,2.06,1.24,2.92,2.19.86.94,1.63,2.05,2.32,3.3l13.04-6.78c-1.03-2.4-2.47-4.6-4.33-6.61-1.86-2-4.13-3.62-6.82-4.85-2.69-1.23-5.92-1.84-9.7-1.84-3.89-.06-7.59.62-11.11,2.02-3.52,1.4-6.46,3.43-8.84,6.09-2.38,2.66-3.79,5.85-4.25,9.57-.29,2.57-.06,4.88.69,6.91.74,2.03,1.79,3.82,3.13,5.36,1.34,1.54,2.85,2.87,4.5,3.99,1.66,1.12,3.29,2.02,4.89,2.7,2.06.8,3.86,1.56,5.41,2.27,1.54.72,2.72,1.49,3.52,2.32.8.83,1.09,1.9.86,3.22-.12,1.03-.53,1.93-1.24,2.7-.72.77-1.62,1.37-2.7,1.8-1.09.43-2.26.64-3.52.64-1.95,0-3.68-.43-5.19-1.29-1.52-.86-2.86-2.03-4.03-3.52-1.17-1.49-2.22-3.2-3.13-5.15l-12.1,8.15c1.09,3.09,2.75,5.85,4.98,8.28,2.23,2.43,4.93,4.32,8.11,5.66,3.17,1.34,6.65,2.04,10.42,2.1,4.06,0,7.95-.77,11.67-2.32,3.72-1.54,6.85-3.78,9.4-6.69,2.54-2.92,4.08-6.49,4.59-10.73.34-2.97.04-5.65-.9-8.02-.94-2.37-2.39-4.43-4.33-6.18-1.95-1.74-4.32-3.13-7.12-4.16-1.26-.52-2.59-1.02-3.99-1.5-1.4-.49-2.69-1.04-3.86-1.67-1.17-.63-2.07-1.33-2.7-2.1-.63-.77-.86-1.67-.69-2.7.11-.86.47-1.59,1.07-2.19Z"/>
      <path d="M594.11,92.78c-3.26-1.66-7.24-2.49-11.93-2.49h-22.57l-10.3,60.06h16.39l3.41-19.91h3.46l8.05,19.91h18.53l-10.68-22.01c.26-.1.52-.19.77-.3,3.8-1.6,6.89-3.92,9.27-6.95,2.37-3.03,3.82-6.61,4.33-10.73.51-4.06,0-7.59-1.54-10.6-1.54-3-3.95-5.33-7.21-6.99ZM579.18,104.36c1.54,0,2.85.27,3.9.82,1.06.54,1.83,1.3,2.32,2.27.49.97.59,2.14.3,3.52-.23,1.43-.8,2.66-1.72,3.69-.92,1.03-2.05,1.82-3.39,2.36-1.34.54-2.82.81-4.42.81h-4.89l2.31-13.47h5.59Z"/>
      <polygon points="651.77 103.76 654.17 90.29 629.2 90.29 624.48 90.29 613.5 90.29 603.21 150.35 614.19 150.35 618.91 150.35 643.79 150.35 646.19 136.88 621.22 136.88 623.14 125.64 646.36 125.64 648.68 112.6 625.38 112.6 626.89 103.76 651.77 103.76"/>
      <polygon points="696.56 120.92 663.27 87.46 652.54 150.35 668.24 150.35 673.56 119.72 706.94 153.18 717.67 90.29 701.96 90.29 696.56 120.92"/>
      <polygon points="721.35 90.29 718.78 105.14 735.17 105.14 727.36 150.35 743.83 150.35 751.56 105.14 767.86 105.14 770.43 90.29 721.35 90.29"/>
    </g>
    <g>
      <path class="st3" d="M106.09,134.3v-.1s.02-.1.02-.1c.22-1.59.53-3.14.82-4.69-1.68-2.03-3.57-3.84-5.75-5.38-4.72-3.33-10.27-5.05-16.64-5.16-3.63,0-7.17.33-10.63,1-3.46.66-6.78,1.66-9.97,3l9.72-17.97,41.11.15c3.35-6.96,7.47-13.27,12.38-18.73,3.14-3.49,6.59-6.55,10.3-9.21H54.39l-25.86,68.56c5.71-2.11,11.53-3.72,17.46-4.83,5.93-1.11,11.42-1.55,16.48-1.33,2.97,0,5.9.41,8.82,1.25,2.91.83,5.27,2.19,7.08,4.08,1.81,1.89,2.44,4.44,1.9,7.65-.55,3.44-1.95,6.16-4.2,8.15-2.25,2-5.05,3.47-8.4,4.41-3.35.94-6.95,1.41-10.79,1.41-4.18-.11-8.57-1.08-13.18-2.91-4.61-1.83-9.06-4.35-13.34-7.57l-13.84,27.46c6.15,3.55,12.91,6.52,20.27,8.9,7.36,2.38,15.65,3.58,24.88,3.58,5.82,0,11.67-.83,17.55-2.5,5.88-1.66,11.29-4.1,16.23-7.32,4.94-3.22,9.09-7.29,12.44-12.23.41-.6.74-1.26,1.11-1.89-1.79-5.43-2.95-11.27-3.41-17.42-.48-6.47-.3-13.29.53-20.27Z"/>
      <path class="st2" d="M200.35,134.82v-.09c1.33-9.21,3.77-17.9,7.25-25.83.23-.52.5-1,.73-1.51-.5-2.22-1.08-4.38-1.8-6.43-1.76-5-4.23-9.36-7.41-13.1-3.19-3.73-7.17-6.65-11.94-8.73-4.78-2.09-10.41-3.13-16.89-3.13-7.8,0-14.97,1.51-21.5,4.53-1.62.75-3.18,1.57-4.7,2.47-4.63,2.73-8.83,6.17-12.6,10.3-.33.36-.61.75-.93,1.11-4.56,5.24-8.37,11.22-11.34,18-3.19,7.25-5.38,15.1-6.59,23.56-.43,3.59-.65,7.1-.7,10.54-.09,2.61.04,5.27.23,8.01.45,5.81,1.56,11.21,3.36,16.21,1.81,5.05,4.36,9.45,7.66,13.18,3.3,3.74,7.3,6.67,12.03,8.81,4.72,2.14,10.16,3.21,16.31,3.21,8.02,0,15.32-1.51,21.91-4.53,6.59-3.02,12.36-7.27,17.3-12.77,4.02-4.46,7.41-9.54,10.23-15.17-.52-2.76-.92-5.58-1.14-8.48-.48-6.41-.3-13.16.53-20.07v-.09ZM179.59,127.14c-.16,3.02-.36,5.96-.58,8.81-.55,3.95-1.51,7.88-2.88,11.78-1.37,3.9-3.13,7.47-5.27,10.71-2.14,3.24-4.56,5.77-7.25,7.58-2.54,1.71-5.39,2.56-8.56,2.56-.19,0-.39,0-.58,0-2.64-.11-4.78-.82-6.43-2.14-1.65-1.32-2.91-3.1-3.79-5.35-.88-2.25-1.48-4.78-1.81-7.58-.33-2.8-.41-5.71-.25-8.73.16-3.02.35-5.96.58-8.81.66-3.95,1.67-7.91,3.05-11.86,1.37-3.95,3.1-7.52,5.19-10.71,2.08-3.18,4.5-5.71,7.25-7.58,2.59-1.76,5.43-2.64,8.52-2.64.18,0,.36,0,.54,0,2.74.11,4.91.85,6.51,2.22,1.59,1.37,2.83,3.19,3.71,5.44.88,2.25,1.48,4.78,1.81,7.58.33,2.8.41,5.71.25,8.73Z"/>
      <path class="st1" d="M304.07,117.42c-.44-5.99-1.54-11.48-3.29-16.47-1.76-5-4.23-9.36-7.41-13.1-3.19-3.73-7.17-6.65-11.94-8.73-4.78-2.09-10.41-3.13-16.89-3.13-7.8,0-14.97,1.51-21.5,4.53-6.54,3.02-12.3,7.28-17.3,12.77-4.08,4.49-7.53,9.59-10.4,15.25-.64,1.27-1.29,2.53-1.87,3.86-.55,1.24-1.02,2.52-1.51,3.8-2.05,5.38-3.59,11.08-4.61,17.08-.1.89-.18,1.78-.3,2.68-.11.87-.28,1.71-.42,2.57-.52,5.45-.62,10.72-.24,15.8.05.69.15,1.36.22,2.05.29,2.82.75,5.54,1.37,8.16.5,2.12,1.08,4.2,1.79,6.19,1.81,5.05,4.37,9.45,7.66,13.18,3.3,3.74,7.3,6.67,12.03,8.81,4.72,2.14,10.16,3.21,16.31,3.21,8.02,0,15.32-1.51,21.91-4.53,6.59-3.02,12.36-7.27,17.3-12.77,4.94-5.49,8.98-11.86,12.11-19.11,3.13-7.25,5.24-15.1,6.34-23.56.88-6.37,1.1-12.55.66-18.53ZM273.83,127.14c-.16,3.02-.36,5.96-.58,8.81-.55,3.95-1.51,7.88-2.88,11.78-1.37,3.9-3.13,7.47-5.27,10.71-2.14,3.24-4.56,5.77-7.25,7.58-2.54,1.71-5.39,2.56-8.56,2.56-.19,0-.39,0-.58,0-2.64-.11-4.78-.82-6.43-2.14-1.65-1.32-2.91-3.1-3.79-5.35-.88-2.25-1.48-4.78-1.81-7.58-.33-2.8-.41-5.71-.25-8.73.16-3.02.35-5.96.58-8.81.66-3.95,1.67-7.91,3.05-11.86,1.37-3.95,3.1-7.52,5.19-10.71,2.08-3.18,4.5-5.71,7.25-7.58,2.59-1.76,5.43-2.64,8.52-2.64.18,0,.36,0,.54,0,2.74.11,4.91.85,6.51,2.22,1.59,1.37,2.83,3.19,3.71,5.44.88,2.25,1.48,4.78,1.81,7.58.33,2.8.41,5.71.25,8.73Z"/>
    </g>
    <path class="st0" d="M522.72,179.1c-.39-.59-.91-1.06-1.54-1.4-.63-.34-1.39-.51-2.25-.51s-1.72.16-2.49.48-1.47.76-2.09,1.34c-.62.58-1.13,1.24-1.53,2-.4.76-.68,1.57-.83,2.42-.12.8-.11,1.57.03,2.32s.4,1.4.79,1.98c.39.58.91,1.04,1.54,1.39s1.39.53,2.25.53,1.72-.16,2.49-.49c.78-.33,1.47-.77,2.08-1.34s1.12-1.23,1.54-1.98c.42-.75.69-1.55.83-2.4.12-.8.11-1.57-.03-2.32-.13-.74-.4-1.41-.79-2Z"/>
    <path class="st0" d="M714.41,183.09c.65,0,1.25-.12,1.79-.35.54-.23,1-.57,1.36-1.01.37-.44.61-.96.73-1.57.1-.6.05-1.12-.16-1.55-.21-.43-.53-.78-.96-1.03-.43-.25-.96-.38-1.58-.38h-2.29l-1.02,5.89h2.14Z"/>
    <path class="st0" d="M651.7,179.1c-.39-.59-.91-1.06-1.54-1.4-.63-.34-1.39-.51-2.25-.51s-1.72.16-2.49.48-1.47.76-2.09,1.34c-.62.58-1.13,1.24-1.53,2-.4.76-.68,1.57-.83,2.42-.12.8-.11,1.57.03,2.32s.4,1.4.79,1.98c.39.58.91,1.04,1.54,1.39s1.39.53,2.25.53,1.72-.16,2.49-.49c.78-.33,1.47-.77,2.08-1.34s1.12-1.23,1.54-1.98c.42-.75.69-1.55.83-2.4.12-.8.11-1.57-.03-2.32-.13-.74-.4-1.41-.79-2Z"/>
    <polygon class="st0" points="471.11 179.61 467.86 185.17 472.46 185.17 471.11 179.61"/>
    <path class="st0" d="M386.8,166.24l-6.07,33.54,376.44.61,4.27-34.15h-374.64ZM413.18,192.18h-9.69l3.01-17.53h2.96l-2.55,14.88h6.76l-.48,2.66ZM436.72,183.42c-.2,1.25-.6,2.43-1.2,3.54-.6,1.11-1.37,2.08-2.29,2.92-.93.84-1.97,1.49-3.13,1.97-1.16.48-2.4.71-3.72.71s-2.45-.25-3.44-.75-1.82-1.18-2.47-2.03-1.11-1.82-1.37-2.92-.3-2.24-.14-3.44c.2-1.27.6-2.45,1.2-3.54.6-1.09,1.37-2.06,2.29-2.89s1.97-1.49,3.13-1.95c1.16-.47,2.39-.7,3.69-.7s2.43.25,3.43.74c1,.49,1.83,1.16,2.48,2,.65.84,1.11,1.81,1.38,2.89.27,1.09.32,2.24.15,3.46ZM457.43,179.71c-.52-.75-1.18-1.35-1.98-1.8-.8-.45-1.75-.68-2.86-.68-.85,0-1.66.16-2.43.48-.77.32-1.47.76-2.09,1.31-.63.56-1.15,1.21-1.58,1.97-.43.75-.71,1.56-.84,2.43-.13.82-.12,1.59.04,2.33.16.73.44,1.39.85,1.95.41.57.93,1.02,1.57,1.37.63.34,1.36.51,2.18.51,1.2.02,2.28-.22,3.24-.71s1.82-1.07,2.57-1.74l-.53,3.51c-.8.58-1.65,1.04-2.55,1.37-.9.33-1.95.49-3.13.49-1.27,0-2.41-.24-3.41-.73-1-.48-1.83-1.14-2.48-1.98-.65-.83-1.11-1.8-1.38-2.91-.27-1.1-.32-2.25-.15-3.46.2-1.27.6-2.46,1.2-3.56.6-1.1,1.37-2.06,2.3-2.88.93-.82,1.98-1.46,3.13-1.94,1.15-.48,2.39-.71,3.71-.71,1.1,0,2.06.15,2.88.46.82.31,1.58.78,2.28,1.42l-.55,3.51ZM474.02,192.18l-1.16-4.51h-6.24l-2.72,4.51h-3.38l11.57-18.56,5.16,18.56h-3.23ZM494.15,177.38h-4.46l-2.55,14.8h-2.96l2.55-14.8h-4.51l.48-2.73h11.92l-.48,2.73ZM500.61,192.18h-2.93l2.98-17.53h2.98l-3.03,17.53ZM526.64,183.42c-.2,1.25-.6,2.43-1.2,3.54-.6,1.11-1.37,2.08-2.29,2.92-.93.84-1.97,1.49-3.13,1.97-1.16.48-2.4.71-3.72.71s-2.45-.25-3.44-.75-1.82-1.18-2.47-2.03-1.11-1.82-1.37-2.92-.3-2.24-.14-3.44c.2-1.27.6-2.45,1.2-3.54.6-1.09,1.37-2.06,2.29-2.89s1.97-1.49,3.13-1.95c1.16-.47,2.39-.7,3.69-.7s2.43.25,3.43.74c1,.49,1.83,1.16,2.48,2,.65.84,1.11,1.81,1.38,2.89.27,1.09.32,2.24.15,3.46ZM547.02,193.03l-10.24-12.65-2.03,11.8h-2.88l3.13-18.38,10.27,12.62,2.03-11.77h2.88l-3.16,18.38ZM582.24,183.42c-.2,1.27-.59,2.44-1.18,3.52-.58,1.08-1.32,2-2.22,2.78-.89.78-1.91,1.38-3.06,1.82-1.14.43-2.38.65-3.72.65h-5.61l2.98-17.53h5.43c1.29,0,2.43.23,3.42.68.99.45,1.82,1.07,2.47,1.87.65.79,1.11,1.72,1.38,2.78.27,1.06.3,2.21.1,3.44ZM600.47,177.25h-7.54l-.74,4.26h7.07l-.45,2.53h-7.06l-.96,5.54h7.56l-.43,2.6h-10.42l2.98-17.53h10.42l-.45,2.6ZM623.59,193.18l-5.46-18.53h3.28l3.08,12.3,6.91-12.3h3.43l-11.25,18.53ZM655.62,183.42c-.2,1.25-.6,2.43-1.2,3.54-.6,1.11-1.37,2.08-2.29,2.92-.93.84-1.97,1.49-3.13,1.97-1.16.48-2.4.71-3.72.71s-2.45-.25-3.44-.75-1.82-1.18-2.47-2.03-1.11-1.82-1.37-2.92-.3-2.24-.14-3.44c.2-1.27.6-2.45,1.2-3.54.6-1.09,1.37-2.06,2.29-2.89s1.97-1.49,3.13-1.95c1.16-.47,2.39-.7,3.69-.7s2.43.25,3.43.74c1,.49,1.83,1.16,2.48,2,.65.84,1.11,1.81,1.38,2.89.27,1.09.32,2.24.15,3.46ZM663.81,192.18h-2.93l2.98-17.53h2.98l-3.03,17.53ZM684.3,177.38h-4.46l-2.55,14.8h-2.96l2.55-14.8h-4.51l.48-2.73h11.92l-.48,2.73ZM701.16,186.42c-.2,1.2-.61,2.27-1.23,3.21-.62.94-1.43,1.67-2.43,2.19-1,.53-2.18.79-3.53.79-1.22,0-2.25-.27-3.11-.81-.85-.54-1.47-1.28-1.85-2.22-.38-.94-.48-1.99-.3-3.16l1.98-11.77h2.96l-2.03,11.65c-.08.62-.05,1.2.09,1.75.14.55.42.99.84,1.32.42.33.98.5,1.7.51.78,0,1.46-.16,2.02-.48.56-.32,1-.75,1.33-1.29.33-.54.54-1.15.64-1.82l2.03-11.65h2.93l-2.03,11.77ZM721.27,180.08c-.15,1.1-.55,2.06-1.2,2.88s-1.48,1.45-2.48,1.9c-.33.15-.67.26-1.02.36l3.6,6.95h-3.38l-3.18-6.64h-1.76l-1.15,6.64h-2.91l2.98-17.53h5.18c1.17,0,2.18.23,3.03.68.85.45,1.49,1.09,1.9,1.9.42.82.54,1.77.38,2.85ZM739.2,177.25h-7.54l-.74,4.26h7.07l-.45,2.53h-7.06l-.96,5.54h7.56l-.43,2.6h-10.42l2.98-17.53h10.42l-.45,2.6Z"/>
    <path class="st0" d="M572.29,189.4c1.19,0,2.26-.25,3.23-.74.97-.49,1.78-1.19,2.44-2.08.66-.89,1.09-1.95,1.29-3.17.13-.87.12-1.67-.03-2.41-.15-.73-.43-1.37-.85-1.9-.42-.53-.95-.95-1.6-1.24s-1.41-.44-2.28-.44h-2.53l-2.07,11.97h2.4Z"/>
    <path class="st0" d="M432.8,179.1c-.39-.59-.91-1.06-1.54-1.4-.63-.34-1.39-.51-2.25-.51s-1.72.16-2.49.48-1.47.76-2.09,1.34c-.62.58-1.13,1.24-1.53,2-.4.76-.68,1.57-.83,2.42-.12.8-.11,1.57.03,2.32s.4,1.4.79,1.98c.39.58.91,1.04,1.54,1.39s1.39.53,2.25.53,1.72-.16,2.49-.49c.78-.33,1.47-.77,2.08-1.34s1.12-1.23,1.54-1.98c.42-.75.69-1.55.83-2.4.12-.8.11-1.57-.03-2.32-.13-.74-.4-1.41-.79-2Z"/>
  </g>
  <g>
    <path class="st0" d="M34.39,163.82l-5.08,29.4h-6.68l5-29.4h6.76ZM30.19,175.71h12.47l-1.01,5.71h-12.47l1.01-5.71ZM32.25,163.82h12.85l-1.09,6.09h-12.85l1.09-6.09Z"/>
    <path class="st0" d="M54.8,163.82l-5.04,29.4h-7.1l5-29.4h7.14Z"/>
    <path class="st0" d="M76.98,163.82h8.32l-19.99,31.33-10.21-31.33h8.02l4.2,17.43,9.66-17.43Z"/>
    <path class="st0" d="M92.35,163.82l-5.08,29.4h-6.68l5-29.4h6.76ZM86.13,187.38h14.53l-1.01,5.84h-14.53l1.01-5.84ZM88.27,174.91h13.69l-1.01,5.71h-13.69l1.01-5.71ZM90.21,163.82h14.49l-1.05,5.84h-14.49l1.05-5.84Z"/>
    <path class="st0" d="M124.77,163.82l-5.08,29.4h-6.93l5-29.4h7.01ZM117.88,174.53h21.67l-1.09,6.34h-21.71l1.13-6.34ZM143.92,163.82l-5.08,29.4h-6.93l5-29.4h7.01Z"/>
    <path class="st0" d="M154.09,163.82l-3.36,19.24c-.11.84-.08,1.65.1,2.42.18.77.55,1.39,1.11,1.85.56.46,1.33.69,2.31.69,1.09.03,2.02-.18,2.79-.63.77-.45,1.39-1.06,1.85-1.83.46-.77.78-1.62.95-2.54l3.32-19.19h6.97l-3.32,19.74c-.36,2.27-1.15,4.21-2.35,5.84-1.21,1.62-2.74,2.86-4.6,3.72-1.86.85-3.96,1.28-6.28,1.28-2.16,0-4.03-.43-5.63-1.3-1.6-.87-2.77-2.11-3.53-3.74-.76-1.62-.98-3.56-.67-5.8l3.32-19.74h7.01Z"/>
    <path class="st0" d="M199.78,163.82l-5.29,30.79-16.59-17.98-2.86,16.59h-6.76l5.25-30.79,16.63,17.98,2.86-16.59h6.76Z"/>
    <path class="st0" d="M210.37,163.82l-5.04,29.4h-7.18l5-29.4h7.22ZM202.68,193.22l1.09-6.3h5.25c1.62,0,3.14-.32,4.54-.95s2.58-1.57,3.55-2.81c.97-1.25,1.6-2.79,1.91-4.64.2-1.34.17-2.53-.06-3.57-.24-1.04-.65-1.92-1.24-2.65-.59-.73-1.35-1.27-2.29-1.64-.94-.36-2-.55-3.17-.55h-5.67l1.13-6.3h5.46c2.27,0,4.28.36,6.03,1.09,1.75.73,3.21,1.74,4.37,3.04,1.16,1.3,1.97,2.86,2.44,4.66.46,1.81.54,3.77.23,5.9-.34,2.21-1.01,4.21-2.02,6.01-1.01,1.79-2.29,3.33-3.84,4.62-1.55,1.29-3.33,2.29-5.31,3-1.99.71-4.14,1.07-6.47,1.07h-5.92Z"/>
    <path class="st0" d="M237.5,163.82l-5.08,29.4h-6.93l5-29.4h7.01ZM234.81,163.82h5.92c2.21,0,4.08.4,5.61,1.2,1.53.8,2.66,1.91,3.4,3.34.74,1.43.99,3.12.74,5.08-.28,1.93-.99,3.63-2.12,5.08-1.13,1.46-2.6,2.57-4.39,3.34-1.79.77-3.82,1.16-6.09,1.16h-6.38l1.01-5.5h5.42c.9,0,1.71-.15,2.46-.44.74-.29,1.36-.73,1.87-1.32.5-.59.83-1.29.97-2.1.14-.78.08-1.46-.19-2.02-.27-.56-.7-1-1.3-1.32-.6-.32-1.32-.48-2.16-.48h-5.75l1.01-6.01ZM242.04,179.91l6.59,13.31h-7.94l-5.71-13.31h7.06Z"/>
    <path class="st0" d="M261.1,163.82l-5.08,29.4h-6.68l5-29.4h6.76ZM254.89,187.38h14.53l-1.01,5.84h-14.53l1.01-5.84ZM257.03,174.91h13.69l-1.01,5.71h-13.69l1.01-5.71ZM258.96,163.82h14.49l-1.05,5.84h-14.49l1.05-5.84Z"/>
    <path class="st0" d="M283.61,163.82l-5.04,29.4h-7.18l5-29.4h7.22ZM275.93,193.22l1.09-6.3h5.25c1.62,0,3.14-.32,4.54-.95s2.58-1.57,3.55-2.81c.97-1.25,1.6-2.79,1.91-4.64.2-1.34.17-2.53-.06-3.57-.24-1.04-.65-1.92-1.24-2.65-.59-.73-1.35-1.27-2.29-1.64-.94-.36-2-.55-3.17-.55h-5.67l1.13-6.3h5.46c2.27,0,4.28.36,6.03,1.09,1.75.73,3.21,1.74,4.37,3.04,1.16,1.3,1.97,2.86,2.44,4.66.46,1.81.54,3.77.23,5.9-.34,2.21-1.01,4.21-2.02,6.01-1.01,1.79-2.29,3.33-3.84,4.62-1.55,1.29-3.33,2.29-5.31,3-1.99.71-4.14,1.07-6.47,1.07h-5.92Z"/>
  </g>
</svg>